<?xml version="1.0" encoding="utf-8"?>
<!-- Generator: Adobe Illustrator 22.0.1, SVG Export Plug-In . SVG Version: 6.00 Build 0)  -->
<svg version="1.1" xmlns="http://www.w3.org/2000/svg" xmlns:xlink="http://www.w3.org/1999/xlink" x="0px" y="0px"
	 viewBox="0 0 980 500" style="enable-background:new 0 0 980 500;" xml:space="preserve">
<style type="text/css">
	.st0{fill-rule:evenodd;clip-rule:evenodd;fill:#E5E5E5;}
	.st1{fill-rule:evenodd;clip-rule:evenodd;fill:#FDFDFF;}
	.st2{fill-rule:evenodd;clip-rule:evenodd;fill:#EDEDEF;}
	.st3{fill:#FFFFFF;}
	.st4{fill-rule:evenodd;clip-rule:evenodd;fill:#1F7FB9;}
	.st5{fill-rule:evenodd;clip-rule:evenodd;fill:#3AADF3;}
	.st6{fill-rule:evenodd;clip-rule:evenodd;fill:#1796E3;}
	.st7{fill:#243253;}
	.st8{clip-path:url(#SVGID_2_);enable-background:new    ;}
	.st9{clip-path:url(#SVGID_4_);fill-rule:evenodd;clip-rule:evenodd;fill:#FDFDFF;}
	.st10{clip-path:url(#SVGID_6_);enable-background:new    ;}
	.st11{clip-path:url(#SVGID_8_);fill-rule:evenodd;clip-rule:evenodd;fill:#EDEDEF;}
	.st12{clip-path:url(#SVGID_10_);enable-background:new    ;}
	.st13{clip-path:url(#SVGID_12_);fill-rule:evenodd;clip-rule:evenodd;fill:#D1D1D1;}
	.st14{clip-path:url(#SVGID_14_);enable-background:new    ;}
	.st15{clip-path:url(#SVGID_16_);fill-rule:evenodd;clip-rule:evenodd;fill:#D1D1D1;}
	.st16{clip-path:url(#SVGID_18_);enable-background:new    ;}
	.st17{clip-path:url(#SVGID_20_);fill-rule:evenodd;clip-rule:evenodd;fill:#EDEDEF;}
	.st18{clip-path:url(#SVGID_22_);enable-background:new    ;}
	.st19{clip-path:url(#SVGID_24_);fill-rule:evenodd;clip-rule:evenodd;fill:#E5E5E5;}
	.st20{display:none;}
	.st21{display:inline;}
	.st22{fill-rule:evenodd;clip-rule:evenodd;fill:#D1D1D1;}
</style>
<g id="Layer_1">
	
		<image style="overflow:visible;" width="888" height="456" xlink:href="C:\Users\BrainX Technologies\Downloads\BrainX logo-01.png"  transform="matrix(1 0 0 1 440.168 937.3555)">
	</image>
	<g>
		<g>
			<polygon class="st0" points="290.5,248 216.3,293.5 294.3,341.1 366.8,294.2 			"/>
			<polygon class="st0" points="142.5,158.8 142.4,251.8 222.2,202.5 			"/>
		</g>
		<path class="st1" d="M366.5,293.6c-13.3,7.2-147.2,92.5-148,93l-75.9-47.4V158.8l74-45.6v0l76.1,45.9l73.9-47.2L216.6,26v51
			l0-50.9l-146.8,90l0.1,267.3L218.5,474v0l148.1-91.2C366.6,382.8,365.8,314.9,366.5,293.6z"/>
		<polygon class="st2" points="366.4,111.1 142.5,250 142.6,339.1 366.5,204.2 		"/>
	</g>
	<g>
		<path class="st3" d="M486,251.5c2.8,3.7,4.2,8.2,4.2,13.6c0,7.6-3,13.5-8.9,17.6c-5.9,4.1-14.6,6.2-26,6.2h-45.1v-87.2h42.6
			c10.6,0,18.8,2,24.5,6.1c5.7,4.1,8.5,9.6,8.5,16.6c0,4.2-1,8-3.1,11.3c-2,3.3-4.9,5.9-8.5,7.8C479.3,245.2,483.2,247.8,486,251.5z
			 M430.4,216.9v20.6h20.1c5,0,8.8-0.9,11.3-2.6c2.6-1.7,3.9-4.3,3.9-7.7c0-3.4-1.3-6-3.9-7.7c-2.6-1.7-6.4-2.6-11.3-2.6H430.4z
			 M465.9,271.1c2.7-1.7,4-4.4,4-8.1c0-7.2-5.4-10.8-16.1-10.8h-23.5v21.5h23.5C459.2,273.7,463.2,272.9,465.9,271.1z"/>
		<path class="st3" d="M561.2,288.9l-16.8-24.3h-1h-17.6v24.3h-20.2v-87.2h37.7c7.7,0,14.4,1.3,20.1,3.9c5.7,2.6,10.1,6.2,13.1,11
			c3.1,4.7,4.6,10.3,4.6,16.8s-1.6,12.1-4.7,16.8c-3.1,4.7-7.5,8.3-13.3,10.8l19.6,28H561.2z M556,222.1c-3.2-2.6-7.8-3.9-13.8-3.9
			h-16.4v30.4h16.4c6.1,0,10.7-1.3,13.8-4c3.2-2.7,4.7-6.4,4.7-11.2C560.8,228.5,559.2,224.7,556,222.1z"/>
		<path class="st3" d="M654.6,270.2h-40.5l-7.7,18.7h-20.7l38.9-87.2h19.9l39,87.2h-21.2L654.6,270.2z M648.2,254.9l-13.8-33.4
			l-13.8,33.4H648.2z"/>
		<path class="st3" d="M692.5,201.7h20.2v87.2h-20.2V201.7z"/>
		<path class="st3" d="M813.4,201.7v87.2h-16.6L753.3,236v52.9h-19.9v-87.2h16.7l43.3,52.9v-52.9H813.4z"/>
		<path class="st3" d="M889,288.9l-21-30.3l-20.7,30.3h-23.2l32.3-44.3l-30.6-42.8h22.9l20.1,28.3l19.7-28.3h21.8l-30.4,42.1
			l32.5,45.1H889z"/>
	</g>
	<g>
		<g>
			<polygon class="st4" points="-891.6,251 -965.8,296.5 -887.8,344.1 -815.4,297.2 			"/>
			<polygon class="st4" points="-1039.6,161.8 -1039.7,254.8 -959.9,205.5 			"/>
		</g>
		<path class="st5" d="M-815.6,296.6c-13.3,7.2-147.2,92.5-148,93l-75.9-47.4V161.8l74-45.6v0l76.1,45.9l73.9-47.2l-150-85.9v51
			l0-50.9l-146.8,90l0.1,267.3l148.7,90.7v0l148.1-91.2C-815.6,385.8-816.3,317.9-815.6,296.6z"/>
		<polygon class="st6" points="-815.7,114.1 -1039.7,253 -1039.5,342.1 -815.6,207.2 		"/>
	</g>
	<g>
		<path class="st7" d="M-696.1,254.5c2.8,3.7,4.2,8.2,4.2,13.6c0,7.6-3,13.5-8.9,17.6c-5.9,4.1-14.6,6.2-26,6.2h-45.1v-87.2h42.6
			c10.6,0,18.8,2,24.5,6.1c5.7,4.1,8.5,9.6,8.5,16.6c0,4.2-1,8-3.1,11.3c-2,3.3-4.9,5.9-8.5,7.8
			C-702.8,248.2-698.9,250.8-696.1,254.5z M-751.7,219.9v20.6h20.1c5,0,8.8-0.9,11.3-2.6c2.6-1.7,3.9-4.3,3.9-7.7
			c0-3.4-1.3-6-3.9-7.7c-2.6-1.7-6.4-2.6-11.3-2.6H-751.7z M-716.2,274.1c2.7-1.7,4-4.4,4-8.1c0-7.2-5.4-10.8-16.1-10.8h-23.5v21.5
			h23.5C-722.9,276.7-718.9,275.9-716.2,274.1z"/>
		<path class="st7" d="M-621,291.9l-16.8-24.3h-1h-17.6v24.3h-20.2v-87.2h37.7c7.7,0,14.4,1.3,20.1,3.9c5.7,2.6,10.1,6.2,13.1,11
			c3.1,4.7,4.6,10.3,4.6,16.8s-1.6,12.1-4.7,16.8c-3.1,4.7-7.5,8.3-13.3,10.8l19.6,28H-621z M-626.1,225.1
			c-3.2-2.6-7.8-3.9-13.8-3.9h-16.4v30.4h16.4c6.1,0,10.7-1.3,13.8-4c3.2-2.7,4.7-6.4,4.7-11.2
			C-621.3,231.5-622.9,227.7-626.1,225.1z"/>
		<path class="st7" d="M-527.6,273.2H-568l-7.7,18.7h-20.7l38.9-87.2h19.9l39,87.2h-21.2L-527.6,273.2z M-533.9,257.9l-13.8-33.4
			l-13.8,33.4H-533.9z"/>
		<path class="st7" d="M-489.6,204.7h20.2v87.2h-20.2V204.7z"/>
		<path class="st7" d="M-368.8,204.7v87.2h-16.6l-43.5-52.9v52.9h-19.9v-87.2h16.7l43.3,52.9v-52.9H-368.8z"/>
		<path class="st7" d="M-293.2,291.9l-21-30.3l-20.7,30.3H-358l32.3-44.3l-30.6-42.8h22.9l20.1,28.3l19.7-28.3h21.8l-30.4,42.1
			l32.5,45.1H-293.2z"/>
	</g>
	<text transform="matrix(1 0 0 1 1630.4817 1566.6025)" style="font-family:'Montserrat-Bold'; font-size:124.5494px;">BRAINX</text>
	<g>
		<defs>
			<rect id="SVGID_1_" x="1078.9" y="-333" width="500" height="850"/>
		</defs>
		<clipPath id="SVGID_2_">
			<use xlink:href="#SVGID_1_"  style="display:none;overflow:visible;"/>
		</clipPath>
		<g class="st8">
			<g>
				<defs>
					<rect id="SVGID_3_" x="1183.4" y="-183.6" width="146.5" height="441.3"/>
				</defs>
				<clipPath id="SVGID_4_">
					<use xlink:href="#SVGID_3_"  style="overflow:visible;"/>
				</clipPath>
				<polygon class="st9" points="1255.1,124.9 1255.1,-52.8 1328.1,-97.8 1328,-183.6 1183.4,-95 1183.4,168.3 1329.9,257.6 
					1329.9,171.6 				"/>
			</g>
		</g>
	</g>
	<g>
		<defs>
			<rect id="SVGID_5_" x="1078.9" y="-333" width="500" height="850"/>
		</defs>
		<clipPath id="SVGID_6_">
			<use xlink:href="#SVGID_5_"  style="display:none;overflow:visible;"/>
		</clipPath>
		<g class="st10">
			<g>
				<defs>
					<rect id="SVGID_7_" x="1328" y="-183.7" width="147.7" height="131.2"/>
				</defs>
				<clipPath id="SVGID_8_">
					<use xlink:href="#SVGID_7_"  style="overflow:visible;"/>
				</clipPath>
				<polygon class="st11" points="1328,-183.7 1328,-97.7 1402.9,-52.5 1475.8,-99.1 				"/>
			</g>
		</g>
	</g>
	<g>
		<defs>
			<rect id="SVGID_9_" x="1078.9" y="-333" width="500" height="850"/>
		</defs>
		<clipPath id="SVGID_10_">
			<use xlink:href="#SVGID_9_"  style="display:none;overflow:visible;"/>
		</clipPath>
		<g class="st12">
			<g>
				<defs>
					<rect id="SVGID_11_" x="1327.7" y="35.1" width="148.2" height="91.6"/>
				</defs>
				<clipPath id="SVGID_12_">
					<use xlink:href="#SVGID_11_"  style="overflow:visible;"/>
				</clipPath>
				<polygon class="st13" points="1400.8,35.1 1327.7,79.8 1404.5,126.7 1475.9,80.5 				"/>
			</g>
		</g>
	</g>
	<g>
		<defs>
			<rect id="SVGID_13_" x="1078.9" y="-333" width="500" height="850"/>
		</defs>
		<clipPath id="SVGID_14_">
			<use xlink:href="#SVGID_13_"  style="display:none;overflow:visible;"/>
		</clipPath>
		<g class="st14">
			<g>
				<defs>
					<rect id="SVGID_15_" x="1254.9" y="-52.9" width="78.6" height="91.7"/>
				</defs>
				<clipPath id="SVGID_16_">
					<use xlink:href="#SVGID_15_"  style="overflow:visible;"/>
				</clipPath>
				<polygon class="st15" points="1255,-52.9 1254.9,38.8 1333.5,-9.8 				"/>
			</g>
		</g>
	</g>
	<g>
		<defs>
			<rect id="SVGID_17_" x="1078.9" y="-333" width="500" height="850"/>
		</defs>
		<clipPath id="SVGID_18_">
			<use xlink:href="#SVGID_17_"  style="display:none;overflow:visible;"/>
		</clipPath>
		<g class="st16">
			<g>
				<defs>
					<rect id="SVGID_19_" x="1329.8" y="79.9" width="145.9" height="177.7"/>
				</defs>
				<clipPath id="SVGID_20_">
					<use xlink:href="#SVGID_19_"  style="overflow:visible;"/>
				</clipPath>
				<path class="st17" d="M1475.7,79.9c-13.1,7.2-145.8,91.6-145.8,91.6l0,86.1l145.9-89.9C1475.7,167.8,1474.9,100.9,1475.7,79.9"
					/>
			</g>
		</g>
	</g>
	<g>
		<defs>
			<rect id="SVGID_21_" x="1078.9" y="-333" width="500" height="850"/>
		</defs>
		<clipPath id="SVGID_22_">
			<use xlink:href="#SVGID_21_"  style="display:none;overflow:visible;"/>
		</clipPath>
		<g class="st18">
			<g>
				<defs>
					<rect id="SVGID_23_" x="1145.4" y="-99.9" width="367.4" height="462.5"/>
				</defs>
				<clipPath id="SVGID_24_">
					<use xlink:href="#SVGID_23_"  style="overflow:visible;"/>
				</clipPath>
				<polygon class="st19" points="1475.6,-99.9 1255,37 1255.1,124.7 1475.7,-8.2 				"/>
				<g style="clip-path:url(#SVGID_24_);">
					<text transform="matrix(1 0 0 1 1171.3818 353.5726)"><tspan x="0" y="0" style="fill:#FCFCFC; font-family:'MyriadPro-Bold'; font-size:36px;">B</tspan><tspan x="19.5" y="0" style="fill:#FCFCFC; font-family:'MyriadPro-Bold'; font-size:36px;">rain</tspan><tspan x="78.3" y="0" style="fill:#FCFCFC; font-family:'MyriadPro-Bold'; font-size:36px;">X</tspan><tspan x="98.9" y="0" style="fill:#FCFCFC; font-family:'MyriadPro-Bold'; font-size:36px; letter-spacing:-1;"> </tspan><tspan x="105.1" y="0" style="fill:#FCFCFC; font-family:'MyriadPro-Bold'; font-size:36px; letter-spacing:-2;">T</tspan><tspan x="120.1" y="0" style="fill:#FCFCFC; font-family:'MyriadPro-Bold'; font-size:36px;">echnol</tspan><tspan x="222.5" y="0" style="fill:#FCFCFC; font-family:'MyriadPro-Bold'; font-size:36px;">o</tspan><tspan x="242.4" y="0" style="fill:#FCFCFC; font-family:'MyriadPro-Bold'; font-size:36px;">gies</tspan></text>
				</g>
			</g>
		</g>
	</g>
</g>
<g id="Layer_2" class="st20">
	<g class="st21">
		<g>
			<polygon class="st22" points="324.9,250.2 250.7,295.6 328.7,343.2 401.2,296.3 			"/>
			<polygon class="st22" points="176.9,160.9 176.8,254 256.6,204.6 			"/>
		</g>
		<path class="st2" d="M400.9,295.7c-13.3,7.2-147.2,92.5-148,93L177,341.4V161l74-45.6v0l76.1,45.9L401,114L251,28.1v51l0-50.9
			l-146.8,90l0.1,267.3l148.7,90.7v0l148.1-91.2C400.9,384.9,400.2,317.1,400.9,295.7z"/>
		<polygon class="st0" points="400.8,113.2 176.8,252.1 177,341.2 400.9,206.3 		"/>
	</g>
	<g class="st21">
		<g>
			<polygon class="st22" points="-857.2,253.2 -931.4,298.6 -853.4,346.2 -781,299.3 			"/>
			<polygon class="st22" points="-1005.2,163.9 -1005.3,257 -925.5,207.6 			"/>
		</g>
		<path class="st2" d="M-781.2,298.7c-13.3,7.2-147.2,92.5-148,93l-75.9-47.4V164l74-45.6v0l76.1,45.9l73.9-47.2l-150-85.9v51
			l0-50.9l-146.8,90l0.1,267.3l148.7,90.7v0l148.1-91.2C-781.2,387.9-782,320.1-781.2,298.7z"/>
		<polygon class="st0" points="-781.3,116.2 -1005.3,255.1 -1005.2,344.2 -781.2,209.3 		"/>
	</g>
</g>
</svg>
